{
    "asset" : {
        "generator" : "Khronos glTF Blender I/O v1.4.40",
        "version" : "2.0"
    },
    "scene" : 0,
    "scenes" : [
        {
            "name" : "Scene",
            "nodes" : [
                15,
                16,
                17
            ]
        }
    ],
    "nodes" : [
        {
            "mesh" : 0,
            "name" : "Body1__0"
        },
        {
            "mesh" : 1,
            "name" : "Body1_Base Material - Opaque_0"
        },
        {
            "children" : [
                0,
                1
            ],
            "name" : "Body1",
            "scale" : [
                10,
                10,
                10
            ]
        },
        {
            "mesh" : 2,
            "name" : "Body2__0"
        },
        {
            "mesh" : 3,
            "name" : "Body2_LED (Green)_0"
        },
        {
            "children" : [
                3,
                4
            ],
            "name" : "Body2",
            "scale" : [
                10,
                10,
                10
            ]
        },
        {
            "mesh" : 4,
            "name" : "Body3_Steel - Rough (1)_0"
        },
        {
            "children" : [
                6
            ],
            "name" : "Body3",
            "scale" : [
                10,
                10,
                10
            ]
        },
        {
            "mesh" : 5,
            "name" : "Body4__0"
        },
        {
            "mesh" : 6,
            "name" : "Body4_LED (Green)_0"
        },
        {
            "children" : [
                8,
                9
            ],
            "name" : "Body4",
            "scale" : [
                10,
                10,
                10
            ]
        },
        {
            "children" : [
                2,
                5,
                7,
                10
            ],
            "name" : "UFO v6"
        },
        {
            "children" : [
                11
            ],
            "name" : "RootNode"
        },
        {
            "children" : [
                12
            ],
            "name" : "cb19c4fe591b4d01af43b6c7ab09665f.fbx",
            "rotation" : [
                0.7071068286895752,
                0,
                0,
                0.7071068286895752
            ]
        },
        {
            "children" : [
                13
            ],
            "name" : "RootNode (model correction matrix)",
            "scale" : [
                0.0014522772980853915,
                0.0014522772980853915,
                0.0014522772980853915
            ]
        },
        {
            "children" : [
                14
            ],
            "name" : "RootNode (gltf orientation matrix)",
            "rotation" : [
                -0.7071068286895752,
                0,
                0,
                0.7071068286895752
            ]
        },
        {
            "name" : "Light",
            "rotation" : [
                0.16907575726509094,
                0.7558803558349609,
                -0.27217137813568115,
                0.570947527885437
            ],
            "translation" : [
                4.076245307922363,
                5.903861999511719,
                -1.0054539442062378
            ]
        },
        {
            "name" : "Camera",
            "rotation" : [
                0.483536034822464,
                0.33687159419059753,
                -0.20870360732078552,
                0.7804827094078064
            ],
            "translation" : [
                7.358891487121582,
                4.958309173583984,
                6.925790786743164
            ]
        }
    ],
    "materials" : [
        {
            "doubleSided" : true,
            "name" : "Body1__0",
            "pbrMetallicRoughness" : {
                "baseColorFactor" : [
                    0.49203813076019287,
                    0.4494340121746063,
                    0.4494340121746063,
                    1
                ],
                "roughnessFactor" : 0.6000000238418579
            }
        },
        {
            "doubleSided" : true,
            "name" : "Base_Material_-_Opaque",
            "pbrMetallicRoughness" : {
                "baseColorFactor" : [
                    0.1291881799697876,
                    0.14435650408267975,
                    0.15090115368366241,
                    1
                ],
                "roughnessFactor" : 0.9577051401138306
            }
        },
        {
            "doubleSided" : true,
            "name" : "LED_Green",
            "pbrMetallicRoughness" : {
                "baseColorFactor" : [
                    0.06734595447778702,
                    0.2169077843427658,
                    0.5612388253211975,
                    1
                ],
                "metallicFactor" : 0,
                "roughnessFactor" : 0.9577051401138306
            }
        },
        {
            "doubleSided" : true,
            "name" : "Steel_-_Rough_1",
            "pbrMetallicRoughness" : {
                "baseColorFactor" : [
                    0.1410743147134781,
                    0.1410743147134781,
                    0.1410743147134781,
                    1
                ],
                "metallicFactor" : 0.6419588327407837,
                "roughnessFactor" : 0.9577051401138306
            }
        }
    ],
    "meshes" : [
        {
            "name" : "Body1__0",
            "primitives" : [
                {
                    "attributes" : {
                        "POSITION" : 0,
                        "NORMAL" : 1,
                        "TEXCOORD_0" : 2
                    },
                    "indices" : 3,
                    "material" : 0
                }
            ]
        },
        {
            "name" : "Body1_Base Material - Opaque_0",
            "primitives" : [
                {
                    "attributes" : {
                        "POSITION" : 4,
                        "NORMAL" : 5,
                        "TEXCOORD_0" : 6
                    },
                    "indices" : 7,
                    "material" : 1
                }
            ]
        },
        {
            "name" : "Body2__0",
            "primitives" : [
                {
                    "attributes" : {
                        "POSITION" : 8,
                        "NORMAL" : 9,
                        "TEXCOORD_0" : 10
                    },
                    "indices" : 11,
                    "material" : 0
                }
            ]
        },
        {
            "name" : "Body2_LED (Green)_0",
            "primitives" : [
                {
                    "attributes" : {
                        "POSITION" : 12,
                        "NORMAL" : 13,
                        "TEXCOORD_0" : 14
                    },
                    "indices" : 15,
                    "material" : 2
                }
            ]
        },
        {
            "name" : "Body3_Steel - Rough (1)_0",
            "primitives" : [
                {
                    "attributes" : {
                        "POSITION" : 16,
                        "NORMAL" : 17,
                        "TEXCOORD_0" : 18
                    },
                    "indices" : 19,
                    "material" : 3
                }
            ]
        },
        {
            "name" : "Body4__0",
            "primitives" : [
                {
                    "attributes" : {
                        "POSITION" : 20,
                        "NORMAL" : 21,
                        "TEXCOORD_0" : 22
                    },
                    "indices" : 23,
                    "material" : 0
                }
            ]
        },
        {
            "name" : "Body4_LED (Green)_0",
            "primitives" : [
                {
                    "attributes" : {
                        "POSITION" : 24,
                        "NORMAL" : 25,
                        "TEXCOORD_0" : 26
                    },
                    "indices" : 27,
                    "material" : 2
                }
            ]
        }
    ],
    "accessors" : [
        {
            "bufferView" : 0,
            "componentType" : 5126,
            "count" : 3503,
            "max" : [
                120,
                300,
                120
            ],
            "min" : [
                -120,
                225,
                -120
            ],
            "type" : "VEC3"
        },
        {
            "bufferView" : 1,
            "componentType" : 5126,
            "count" : 3503,
            "type" : "VEC3"
        },
        {
            "bufferView" : 2,
            "componentType" : 5126,
            "count" : 3503,
            "type" : "VEC2"
        },
        {
            "bufferView" : 3,
            "componentType" : 5123,
            "count" : 14811,
            "type" : "SCALAR"
        },
        {
            "bufferView" : 4,
            "componentType" : 5126,
            "count" : 750,
            "max" : [
                113.5271224975586,
                260.3547058105469,
                113.5271224975586
            ],
            "min" : [
                -113.5271224975586,
                236.20654296875,
                -113.5271224975586
            ],
            "type" : "VEC3"
        },
        {
            "bufferView" : 5,
            "componentType" : 5126,
            "count" : 750,
            "type" : "VEC3"
        },
        {
            "bufferView" : 6,
            "componentType" : 5126,
            "count" : 750,
            "type" : "VEC2"
        },
        {
            "bufferView" : 7,
            "componentType" : 5123,
            "count" : 768,
            "type" : "SCALAR"
        },
        {
            "bufferView" : 8,
            "componentType" : 5126,
            "count" : 7693,
            "max" : [
                299.9991455078125,
                225,
                299.9991455078125
            ],
            "min" : [
                -299.9991455078125,
                124.99996185302734,
                -299.9991455078125
            ],
            "type" : "VEC3"
        },
        {
            "bufferView" : 9,
            "componentType" : 5126,
            "count" : 7693,
            "type" : "VEC3"
        },
        {
            "bufferView" : 10,
            "componentType" : 5126,
            "count" : 7693,
            "type" : "VEC2"
        },
        {
            "bufferView" : 11,
            "componentType" : 5123,
            "count" : 21789,
            "type" : "SCALAR"
        },
        {
            "bufferView" : 12,
            "componentType" : 5126,
            "count" : 3856,
            "max" : [
                299.19317626953125,
                173.7498321533203,
                299.19317626953125
            ],
            "min" : [
                -299.19317626953125,
                156.243896484375,
                -299.19317626953125
            ],
            "type" : "VEC3"
        },
        {
            "bufferView" : 13,
            "componentType" : 5126,
            "count" : 3856,
            "type" : "VEC3"
        },
        {
            "bufferView" : 14,
            "componentType" : 5126,
            "count" : 3856,
            "type" : "VEC2"
        },
        {
            "bufferView" : 15,
            "componentType" : 5123,
            "count" : 3888,
            "type" : "SCALAR"
        },
        {
            "bufferView" : 16,
            "componentType" : 5126,
            "count" : 1251,
            "max" : [
                177.13937377929688,
                150.00502014160156,
                177.13937377929688
            ],
            "min" : [
                -177.13937377929688,
                111.59242248535156,
                -177.13937377929688
            ],
            "type" : "VEC3"
        },
        {
            "bufferView" : 17,
            "componentType" : 5126,
            "count" : 1251,
            "type" : "VEC3"
        },
        {
            "bufferView" : 18,
            "componentType" : 5126,
            "count" : 1251,
            "type" : "VEC2"
        },
        {
            "bufferView" : 19,
            "componentType" : 5123,
            "count" : 2373,
            "type" : "SCALAR"
        },
        {
            "bufferView" : 20,
            "componentType" : 5126,
            "count" : 860,
            "max" : [
                124,
                120,
                124
            ],
            "min" : [
                -124,
                100,
                -124
            ],
            "type" : "VEC3"
        },
        {
            "bufferView" : 21,
            "componentType" : 5126,
            "count" : 860,
            "type" : "VEC3"
        },
        {
            "bufferView" : 22,
            "componentType" : 5126,
            "count" : 860,
            "type" : "VEC2"
        },
        {
            "bufferView" : 23,
            "componentType" : 5123,
            "count" : 2088,
            "type" : "SCALAR"
        },
        {
            "bufferView" : 24,
            "componentType" : 5126,
            "count" : 248,
            "max" : [
                114,
                115,
                114
            ],
            "min" : [
                -114,
                112.31779479980469,
                -114
            ],
            "type" : "VEC3"
        },
        {
            "bufferView" : 25,
            "componentType" : 5126,
            "count" : 248,
            "type" : "VEC3"
        },
        {
            "bufferView" : 26,
            "componentType" : 5126,
            "count" : 248,
            "type" : "VEC2"
        },
        {
            "bufferView" : 27,
            "componentType" : 5123,
            "count" : 948,
            "type" : "SCALAR"
        }
    ],
    "bufferViews" : [
        {
            "buffer" : 0,
            "byteLength" : 42036,
            "byteOffset" : 0
        },
        {
            "buffer" : 0,
            "byteLength" : 42036,
            "byteOffset" : 42036
        },
        {
            "buffer" : 0,
            "byteLength" : 28024,
            "byteOffset" : 84072
        },
        {
            "buffer" : 0,
            "byteLength" : 29622,
            "byteOffset" : 112096
        },
        {
            "buffer" : 0,
            "byteLength" : 9000,
            "byteOffset" : 141720
        },
        {
            "buffer" : 0,
            "byteLength" : 9000,
            "byteOffset" : 150720
        },
        {
            "buffer" : 0,
            "byteLength" : 6000,
            "byteOffset" : 159720
        },
        {
            "buffer" : 0,
            "byteLength" : 1536,
            "byteOffset" : 165720
        },
        {
            "buffer" : 0,
            "byteLength" : 92316,
            "byteOffset" : 167256
        },
        {
            "buffer" : 0,
            "byteLength" : 92316,
            "byteOffset" : 259572
        },
        {
            "buffer" : 0,
            "byteLength" : 61544,
            "byteOffset" : 351888
        },
        {
            "buffer" : 0,
            "byteLength" : 43578,
            "byteOffset" : 413432
        },
        {
            "buffer" : 0,
            "byteLength" : 46272,
            "byteOffset" : 457012
        },
        {
            "buffer" : 0,
            "byteLength" : 46272,
            "byteOffset" : 503284
        },
        {
            "buffer" : 0,
            "byteLength" : 30848,
            "byteOffset" : 549556
        },
        {
            "buffer" : 0,
            "byteLength" : 7776,
            "byteOffset" : 580404
        },
        {
            "buffer" : 0,
            "byteLength" : 15012,
            "byteOffset" : 588180
        },
        {
            "buffer" : 0,
            "byteLength" : 15012,
            "byteOffset" : 603192
        },
        {
            "buffer" : 0,
            "byteLength" : 10008,
            "byteOffset" : 618204
        },
        {
            "buffer" : 0,
            "byteLength" : 4746,
            "byteOffset" : 628212
        },
        {
            "buffer" : 0,
            "byteLength" : 10320,
            "byteOffset" : 632960
        },
        {
            "buffer" : 0,
            "byteLength" : 10320,
            "byteOffset" : 643280
        },
        {
            "buffer" : 0,
            "byteLength" : 6880,
            "byteOffset" : 653600
        },
        {
            "buffer" : 0,
            "byteLength" : 4176,
            "byteOffset" : 660480
        },
        {
            "buffer" : 0,
            "byteLength" : 2976,
            "byteOffset" : 664656
        },
        {
            "buffer" : 0,
            "byteLength" : 2976,
            "byteOffset" : 667632
        },
        {
            "buffer" : 0,
            "byteLength" : 1984,
            "byteOffset" : 670608
        },
        {
            "buffer" : 0,
            "byteLength" : 1896,
            "byteOffset" : 672592
        }
    ],
    "buffers" : [
        {
            "byteLength" : 674488,
            "uri" : "data:application/octet-stream;base64,"
        }
    ]
}
