{
  "accessors": [
    {
      "bufferView": 2,
      "componentType": 5126,
      "count": 5754,
      "max": [
        120,
        300,
        120
      ],
      "min": [
        -120,
        225,
        -120
      ],
      "type": "VEC3"
    },
    {
      "bufferView": 2,
      "byteOffset": 69048,
      "componentType": 5126,
      "count": 5754,
      "max": [
        1,
        1,
        1
      ],
      "min": [
        -1,
        -1,
        -1
      ],
      "type": "VEC3"
    },
    {
      "bufferView": 1,
      "componentType": 5126,
      "count": 5754,
      "max": [
        120,
        459.63040161132812
      ],
      "min": [
        -152.22221374511719,
        -120
      ],
      "type": "VEC2"
    },
    {
      "bufferView": 0,
      "componentType": 5125,
      "count": 28458,
      "max": [
        5753
      ],
      "min": [
        0
      ],
      "type": "SCALAR"
    },
    {
      "bufferView": 2,
      "byteOffset": 138096,
      "componentType": 5126,
      "count": 264,
      "max": [
        113.52712249755859,
        260.35470581054688,
        113.52712249755859
      ],
      "min": [
        -113.52712249755859,
        236.20654296875,
        -113.52712249755859
      ],
      "type": "VEC3"
    },
    {
      "bufferView": 2,
      "byteOffset": 141264,
      "componentType": 5126,
      "count": 264,
      "max": [
        0.96592593193054199,
        0.25881907343864441,
        0.96592593193054199
      ],
      "min": [
        -0.96592593193054199,
        0.25881904363632202,
        -0.96592593193054199
      ],
      "type": "VEC3"
    },
    {
      "bufferView": 1,
      "byteOffset": 46032,
      "componentType": 5126,
      "count": 264,
      "max": [
        12.5,
        12.5
      ],
      "min": [
        -12.5,
        -12.5
      ],
      "type": "VEC2"
    },
    {
      "bufferView": 0,
      "byteOffset": 113832,
      "componentType": 5125,
      "count": 768,
      "max": [
        263
      ],
      "min": [
        0
      ],
      "type": "SCALAR"
    },
    {
      "bufferView": 2,
      "byteOffset": 144432,
      "componentType": 5126,
      "count": 11190,
      "max": [
        299.99905395507812,
        225,
        299.99905395507812
      ],
      "min": [
        -299.99905395507812,
        125,
        -299.99905395507812
      ],
      "type": "VEC3"
    },
    {
      "bufferView": 2,
      "byteOffset": 278712,
      "componentType": 5126,
      "count": 11190,
      "max": [
        1,
        1,
        1
      ],
      "min": [
        -1,
        -1,
        -1
      ],
      "type": "VEC3"
    },
    {
      "bufferView": 1,
      "byteOffset": 48144,
      "componentType": 5126,
      "count": 11190,
      "max": [
        313.93060302734375,
        1550.3272705078125
      ],
      "min": [
        -184.89793395996094,
        -953.86114501953125
      ],
      "type": "VEC2"
    },
    {
      "bufferView": 0,
      "byteOffset": 116904,
      "componentType": 5125,
      "count": 41316,
      "max": [
        11189
      ],
      "min": [
        0
      ],
      "type": "SCALAR"
    },
    {
      "bufferView": 2,
      "byteOffset": 412992,
      "componentType": 5126,
      "count": 1332,
      "max": [
        299.19317626953125,
        173.74983215332031,
        299.19317626953125
      ],
      "min": [
        -299.19317626953125,
        156.243896484375,
        -299.19317626953125
      ],
      "type": "VEC3"
    },
    {
      "bufferView": 2,
      "byteOffset": 428976,
      "componentType": 5126,
      "count": 1332,
      "max": [
        0.99889922142028809,
        0.004936994519084692,
        0.99889922142028809
      ],
      "min": [
        -0.99889922142028809,
        0.0049369940534234047,
        -0.99889922142028809
      ],
      "type": "VEC3"
    },
    {
      "bufferView": 1,
      "byteOffset": 137664,
      "componentType": 5126,
      "count": 1332,
      "max": [
        2.5,
        8.75
      ],
      "min": [
        -2.5,
        -8.75
      ],
      "type": "VEC2"
    },
    {
      "bufferView": 0,
      "byteOffset": 282168,
      "componentType": 5125,
      "count": 3888,
      "max": [
        1331
      ],
      "min": [
        0
      ],
      "type": "SCALAR"
    },
    {
      "bufferView": 2,
      "byteOffset": 444960,
      "componentType": 5126,
      "count": 2974,
      "max": [
        177.13937377929688,
        150,
        177.13937377929688
      ],
      "min": [
        -177.13937377929688,
        111.69777679443359,
        -177.13937377929688
      ],
      "type": "VEC3"
    },
    {
      "bufferView": 2,
      "byteOffset": 480648,
      "componentType": 5126,
      "count": 2974,
      "max": [
        1,
        1,
        1
      ],
      "min": [
        -1,
        -1,
        -1
      ],
      "type": "VEC3"
    },
    {
      "bufferView": 1,
      "byteOffset": 148320,
      "componentType": 5126,
      "count": 2974,
      "max": [
        177.13937377929688,
        455.58236694335938
      ],
      "min": [
        -177.13937377929688,
        -455.58236694335938
      ],
      "type": "VEC2"
    },
    {
      "bufferView": 0,
      "byteOffset": 297720,
      "componentType": 5125,
      "count": 10500,
      "max": [
        2973
      ],
      "min": [
        0
      ],
      "type": "SCALAR"
    },
    {
      "bufferView": 2,
      "byteOffset": 516336,
      "componentType": 5126,
      "count": 248,
      "max": [
        114,
        115,
        114
      ],
      "min": [
        -114,
        112.31779479980469,
        -114
      ],
      "type": "VEC3"
    },
    {
      "bufferView": 2,
      "byteOffset": 519312,
      "componentType": 5126,
      "count": 248,
      "max": [
        0.036555696278810501,
        -0.99933171272277832,
        0.036555696278810501
      ],
      "min": [
        -0.036555696278810501,
        -0.99999862909317017,
        -0.036555696278810501
      ],
      "type": "VEC3"
    },
    {
      "bufferView": 1,
      "byteOffset": 172112,
      "componentType": 5126,
      "count": 248,
      "max": [
        114.03730773925781,
        322.46737670898438
      ],
      "min": [
        0,
        0
      ],
      "type": "VEC2"
    },
    {
      "bufferView": 0,
      "byteOffset": 339720,
      "componentType": 5125,
      "count": 948,
      "max": [
        247
      ],
      "min": [
        0
      ],
      "type": "SCALAR"
    },
    {
      "bufferView": 2,
      "byteOffset": 522288,
      "componentType": 5126,
      "count": 579,
      "max": [
        124,
        120,
        124
      ],
      "min": [
        -124,
        100,
        -124
      ],
      "type": "VEC3"
    },
    {
      "bufferView": 2,
      "byteOffset": 529236,
      "componentType": 5126,
      "count": 579,
      "max": [
        1,
        1,
        1
      ],
      "min": [
        -1,
        -1,
        -1
      ],
      "type": "VEC3"
    },
    {
      "bufferView": 1,
      "byteOffset": 174096,
      "componentType": 5126,
      "count": 579,
      "max": [
        124,
        350.73150634765625
      ],
      "min": [
        -124,
        -350.73150634765625
      ],
      "type": "VEC2"
    },
    {
      "bufferView": 0,
      "byteOffset": 343512,
      "componentType": 5125,
      "count": 2088,
      "max": [
        578
      ],
      "min": [
        0
      ],
      "type": "SCALAR"
    }
  ],
  "asset": {
    "extras": {
      "author": "rowan11 (https://sketchfab.com/rowan11)",
      "license": "CC-BY-4.0 (http://creativecommons.org/licenses/by/4.0/)",
      "source": "https://sketchfab.com/3d-models/ufo-2c3b4613db884585938318e1d10361d3",
      "title": "UFO"
    },
    "generator": "Sketchfab-9.81.0",
    "version": "2.0"
  },
  "bufferViews": [
    {
      "buffer": 0,
      "byteLength": 351864,
      "byteOffset": 0,
      "name": "floatBufferViews",
      "target": 34963
    },
    {
      "buffer": 0,
      "byteLength": 178728,
      "byteOffset": 351864,
      "byteStride": 8,
      "name": "floatBufferViews",
      "target": 34962
    },
    {
      "buffer": 0,
      "byteLength": 536184,
      "byteOffset": 530592,
      "byteStride": 12,
      "name": "floatBufferViews",
      "target": 34962
    }
  ],
  "buffers": [
    {
      "byteLength": 1066776,
      "uri": "scene.bin"
    }
  ],
  "materials": [
    {
      "doubleSided": true,
      "name": "Body1__0",
      "pbrMetallicRoughness": {
        "baseColorFactor": [
          0.49203814104980514,
          0.44943402595192516,
          0.44943402595192516,
          1
        ],
        "metallicFactor": 1,
        "roughnessFactor": 0.59999999999999998
      }
    },
    {
      "doubleSided": true,
      "emissiveFactor": [
        0,
        0,
        0
      ],
      "name": "Base_Material_-_Opaque",
      "pbrMetallicRoughness": {
        "baseColorFactor": [
          0.12918817636889204,
          0.14435650948695394,
          0.15090114725019055,
          1
        ],
        "metallicFactor": 1,
        "roughnessFactor": 0.95770514949999996
      }
    },
    {
      "doubleSided": true,
      "emissiveFactor": [
        0,
        0,
        0
      ],
      "name": "LED_Green",
      "pbrMetallicRoughness": {
        "baseColorFactor": [
          0.067345956704393861,
          0.2169077888695285,
          0.56123881032159872,
          1
        ],
        "metallicFactor": 0,
        "roughnessFactor": 0.95770514949999996
      }
    },
    {
      "doubleSided": true,
      "emissiveFactor": [
        0,
        0,
        0
      ],
      "name": "Steel_-_Rough_1",
      "pbrMetallicRoughness": {
        "baseColorFactor": [
          0.14107431122548625,
          0.14107431122548625,
          0.14107431122548625,
          1
        ],
        "metallicFactor": 0.64195884146341464,
        "roughnessFactor": 0.95770514949999996
      }
    }
  ],
  "meshes": [
    {
      "name": "Body1__0",
      "primitives": [
        {
          "attributes": {
            "NORMAL": 1,
            "POSITION": 0,
            "TEXCOORD_0": 2
          },
          "indices": 3,
          "material": 0,
          "mode": 4
        }
      ]
    },
    {
      "name": "Body1_Base Material - Opaque_0",
      "primitives": [
        {
          "attributes": {
            "NORMAL": 5,
            "POSITION": 4,
            "TEXCOORD_0": 6
          },
          "indices": 7,
          "material": 1,
          "mode": 4
        }
      ]
    },
    {
      "name": "Body2__0",
      "primitives": [
        {
          "attributes": {
            "NORMAL": 9,
            "POSITION": 8,
            "TEXCOORD_0": 10
          },
          "indices": 11,
          "material": 0,
          "mode": 4
        }
      ]
    },
    {
      "name": "Body2_LED (Green)_0",
      "primitives": [
        {
          "attributes": {
            "NORMAL": 13,
            "POSITION": 12,
            "TEXCOORD_0": 14
          },
          "indices": 15,
          "material": 2,
          "mode": 4
        }
      ]
    },
    {
      "name": "Body3_Steel - Rough (1)_0",
      "primitives": [
        {
          "attributes": {
            "NORMAL": 17,
            "POSITION": 16,
            "TEXCOORD_0": 18
          },
          "indices": 19,
          "material": 3,
          "mode": 4
        }
      ]
    },
    {
      "name": "Body4_LED (Green)_0",
      "primitives": [
        {
          "attributes": {
            "NORMAL": 21,
            "POSITION": 20,
            "TEXCOORD_0": 22
          },
          "indices": 23,
          "material": 2,
          "mode": 4
        }
      ]
    },
    {
      "name": "Body4__0",
      "primitives": [
        {
          "attributes": {
            "NORMAL": 25,
            "POSITION": 24,
            "TEXCOORD_0": 26
          },
          "indices": 27,
          "material": 0,
          "mode": 4
        }
      ]
    }
  ],
  "nodes": [
    {
      "children": [
        1
      ],
      "name": "RootNode (gltf orientation matrix)",
      "rotation": [
        -0.70710678118654746,
        -0,
        -0,
        0.70710678118654757
      ]
    },
    {
      "children": [
        2
      ],
      "matrix": [
        0.0014522772980853915,
        0,
        0,
        0,
        0,
        0.0014522772980853915,
        0,
        0,
        0,
        0,
        0.0014522772980853915,
        0,
        0,
        0,
        0,
        1
      ],
      "name": "RootNode (model correction matrix)"
    },
    {
      "children": [
        3
      ],
      "matrix": [
        1,
        0,
        0,
        0,
        0,
        0,
        1,
        0,
        0,
        -1,
        0,
        0,
        0,
        0,
        0,
        1
      ],
      "name": "cb19c4fe591b4d01af43b6c7ab09665f.fbx"
    },
    {
      "children": [
        4
      ],
      "name": "RootNode"
    },
    {
      "children": [
        5,
        8,
        11,
        13
      ],
      "name": "UFO v6"
    },
    {
      "children": [
        6,
        7
      ],
      "matrix": [
        10,
        0,
        0,
        0,
        0,
        10,
        0,
        0,
        0,
        0,
        10,
        0,
        0,
        0,
        0,
        1
      ],
      "name": "Body1"
    },
    {
      "mesh": 0,
      "name": "Body1__0"
    },
    {
      "mesh": 1,
      "name": "Body1_Base Material - Opaque_0"
    },
    {
      "children": [
        9,
        10
      ],
      "matrix": [
        10,
        0,
        0,
        0,
        0,
        10,
        0,
        0,
        0,
        0,
        10,
        0,
        0,
        0,
        0,
        1
      ],
      "name": "Body2"
    },
    {
      "mesh": 2,
      "name": "Body2__0"
    },
    {
      "mesh": 3,
      "name": "Body2_LED (Green)_0"
    },
    {
      "children": [
        12
      ],
      "matrix": [
        10,
        0,
        0,
        0,
        0,
        10,
        0,
        0,
        0,
        0,
        10,
        0,
        0,
        0,
        0,
        1
      ],
      "name": "Body3"
    },
    {
      "mesh": 4,
      "name": "Body3_Steel - Rough (1)_0"
    },
    {
      "children": [
        14,
        15
      ],
      "matrix": [
        10,
        0,
        0,
        0,
        0,
        10,
        0,
        0,
        0,
        0,
        10,
        0,
        0,
        0,
        0,
        1
      ],
      "name": "Body4"
    },
    {
      "mesh": 5,
      "name": "Body4_LED (Green)_0"
    },
    {
      "mesh": 6,
      "name": "Body4__0"
    }
  ],
  "scene": 0,
  "scenes": [
    {
      "name": "OSG_Scene",
      "nodes": [
        0
      ]
    }
  ]
}

