{
  "accessors": [
    {
      "bufferView": 1,
      "componentType": 5126,
      "count": 8180,
      "max": [
        0.99742299318313599,
        0.68451398611068726,
        0.40123701095581055
      ],
      "min": [
        -0.99742299318313599,
        -1.3684589862823486,
        -2.5789539813995361
      ],
      "type": "VEC3"
    },
    {
      "bufferView": 1,
      "byteOffset": 98160,
      "componentType": 5126,
      "count": 8180,
      "max": [
        0.9999312162399292,
        0.99959391355514526,
        0.99995905160903931
      ],
      "min": [
        -0.99963855743408203,
        -0.99989038705825806,
        -0.99999040365219116
      ],
      "type": "VEC3"
    },
    {
      "bufferView": 2,
      "componentType": 5126,
      "count": 8180,
      "max": [
        0.75294101238250732,
        0.75294101238250732,
        0.75294101238250732,
        1
      ],
      "min": [
        0.75294101238250732,
        0.75294101238250732,
        0.75294101238250732,
        1
      ],
      "type": "VEC4"
    },
    {
      "bufferView": 0,
      "componentType": 5125,
      "count": 49044,
      "max": [
        8179
      ],
      "min": [
        0
      ],
      "type": "SCALAR"
    }
  ],
  "asset": {
    "extras": {
      "author": "Key3D (https://sketchfab.com/Keyshack)",
      "license": "CC-BY-4.0 (http://creativecommons.org/licenses/by/4.0/)",
      "source": "https://sketchfab.com/3d-models/mad-octopus-80fd3c4d6bed496190a44f82918b0a11",
      "title": "Mad Octopus"
    },
    "generator": "Sketchfab-10.20.0",
    "version": "2.0"
  },
  "bufferViews": [
    {
      "buffer": 0,
      "byteLength": 196176,
      "byteOffset": 0,
      "name": "floatBufferViews",
      "target": 34963
    },
    {
      "buffer": 0,
      "byteLength": 196320,
      "byteOffset": 196176,
      "byteStride": 12,
      "name": "floatBufferViews",
      "target": 34962
    },
    {
      "buffer": 0,
      "byteLength": 130880,
      "byteOffset": 392496,
      "byteStride": 16,
      "name": "floatBufferViews",
      "target": 34962
    }
  ],
  "buffers": [
    {
      "byteLength": 523376,
      "uri": "scene.bin"
    }
  ],
  "materials": [
    {
      "doubleSided": true,
      "emissiveFactor": [
        0,
        0,
        0
      ],
      "name": "material_0",
      "pbrMetallicRoughness": {
        "baseColorFactor": [
          1,
          1,
          1,
          1
        ],
        "metallicFactor": 0,
        "roughnessFactor": 0.20000000000000001
      }
    }
  ],
  "meshes": [
    {
      "primitives": [
        {
          "attributes": {
            "COLOR_0": 2,
            "NORMAL": 1,
            "POSITION": 0
          },
          "indices": 3,
          "material": 0,
          "mode": 4
        }
      ]
    }
  ],
  "nodes": [
    {
      "children": [
        1
      ],
      "name": "RootNode (gltf orientation matrix)",
      "rotation": [
        -0.70710678118654746,
        -0,
        -0,
        0.70710678118654757
      ]
    },
    {
      "children": [
        2
      ],
      "name": "RootNode (model correction matrix)"
    },
    {
      "children": [
        3
      ],
      "name": "mad octopus.obj.cleaner"
    },
    {
      "mesh": 0,
      "name": ""
    }
  ],
  "scene": 0,
  "scenes": [
    {
      "name": "OSG_Scene",
      "nodes": [
        0
      ]
    }
  ]
}

